<?xml version="1.0" encoding="UTF-8"?>
<svg id="Layer_1" data-name="Layer 1" xmlns="http://www.w3.org/2000/svg" xmlns:xlink="http://www.w3.org/1999/xlink" viewBox="0 0 494.07 173.56">
  <defs>
    <style>
      .cls-1 {
        fill: #fff;
      }

      .cls-2 {
        fill: url(#linear-gradient);
      }
    </style>
    <linearGradient id="linear-gradient" x1="210.57" y1="152.62" x2="270.27" y2="-21.84" gradientUnits="userSpaceOnUse">
      <stop offset="0" stop-color="#6de8ff"/>
      <stop offset=".12" stop-color="#62d1ed"/>
      <stop offset=".36" stop-color="#4798c0"/>
      <stop offset=".71" stop-color="#1d3d79"/>
      <stop offset=".84" stop-color="#0c185c"/>
    </linearGradient>
  </defs>
  <path class="cls-2" d="M311.83,124.72c-57.88,29.93-69.42,41.58-83.35,46.25-53.17,17.86-155.49-61.05-145.31-106.91C99.06-7.52,393.46-18.4,407.83,27.85c6.31,20.32-37.43,64.48-74.62,85.96-5.54,3.2-4.48,2.17-21.38,10.91Z"/>
  <g>
    <path class="cls-1" d="M0,80.5c0-9.72,3.59-17.28,10.76-22.69,7.17-5.41,17.16-8.12,29.97-8.12s23.24,2.66,30.34,7.98c7.1,5.32,10.65,12.77,10.65,22.35,0,6.96-1.55,12.66-4.65,17.11-3.1,4.45-7.59,7.92-13.45,10.39-5.86,2.48-13.17,3.71-21.92,3.71s-16.26-1.07-22.09-3.21c-5.83-2.14-10.55-5.52-14.18-10.15-3.62-4.63-5.43-10.42-5.43-17.37Zm24.37,.08c0,6.01,1.48,10.32,4.44,12.95,2.96,2.62,6.99,3.94,12.08,3.94s9.29-1.29,12.16-3.86c2.87-2.57,4.3-7.19,4.3-13.84,0-5.6-1.5-9.7-4.49-12.28-3-2.58-7.06-3.88-12.19-3.88s-8.86,1.31-11.84,3.94c-2.98,2.63-4.47,6.97-4.47,13.03Z"/>
    <path class="cls-1" d="M94.15,50.7h21.95v59.51h-21.95V50.7Z"/>
    <path class="cls-1" d="M130.9,50.7h21.9v11.24h-21.9v-11.24Zm0,16.4h21.9v43.11h-21.9v-43.11Z"/>
    <path class="cls-1" d="M160.33,67.1h22.78l11.08,27.32,11.5-27.32h22.1l-24.28,43.11h-19.42l-23.76-43.11Z"/>
    <path class="cls-1" d="M294.67,92.76h-43.9c.39,2.65,1.34,4.63,2.85,5.93,2.12,1.87,4.88,2.8,8.29,2.8,2.15,0,4.2-.41,6.13-1.22,1.18-.51,2.46-1.42,3.82-2.72l21.58,1.5c-3.3,4.33-7.28,7.44-11.94,9.32-4.66,1.88-11.35,2.82-20.07,2.82-7.57,0-13.52-.81-17.86-2.42-4.34-1.61-7.94-4.17-10.79-7.67-2.85-3.5-4.28-7.62-4.28-12.36,0-6.74,2.86-12.19,8.58-16.36,5.72-4.17,13.62-6.25,23.7-6.25,8.18,0,14.63,.93,19.37,2.8,4.73,1.87,8.34,4.57,10.81,8.12,2.48,3.55,3.71,8.16,3.71,13.84v1.87Zm-22.27-7.92c-.43-3.19-1.57-5.48-3.42-6.86-1.85-1.38-4.28-2.07-7.29-2.07-3.48,0-6.26,1.04-8.34,3.13-1.33,1.3-2.17,3.23-2.53,5.8h21.58Z"/>
    <path class="cls-1" d="M304.95,67.1h20.5v7.06c1.97-3.06,4.01-5.16,6.11-6.31,2.1-1.15,4.69-1.73,7.78-1.73s6.76,.76,10.6,2.27l-6.78,11.77c-2.58-.81-4.63-1.22-6.13-1.22-2.87,0-5.09,.89-6.67,2.68-2.26,2.52-3.39,7.23-3.39,14.13v14.45h-22v-43.11Z"/>
    <path class="cls-1" d="M383.72,50.7h23.15l8.33,33.32,12.2-33.32h23.07l12.23,33.27,8.34-33.27h23.03l-17.39,59.51h-23.9l-13.83-37.47-13.78,37.47h-23.9l-17.55-59.51Z"/>
  </g>
</svg>